ffmpeg started on 2015-06-27 at 18:48:26
Report written to "ffv1_test_pixfmt-yuv422p10le_coder-1_level-3_g-1.txt"
Command line:
ffmpeg -y -f lavfi -i mandelbrot -c:v ffv1 -pix_fmt yuv422p10le -level 3 -coder 1 -g 1 -t 1 ffv1_test_pixfmt-yuv422p10le_coder-1_level-3_g-1.mkv
ffmpeg version 2.6.3 Copyright (c) 2000-2015 the FFmpeg developers
  built with Apple LLVM version 6.1.0 (clang-602.0.49) (based on LLVM 3.6.0svn)
  configuration: --prefix=/usr/local/Cellar/ffmpeg/2.6.3 --enable-shared --enable-pthreads --enable-gpl --enable-version3 --enable-hardcoded-tables --enable-avresample --cc=clang --host-cflags= --host-ldflags= --enable-libx264 --enable-libmp3lame --enable-libvo-aacenc --enable-libxvid --enable-libfaac --enable-ffplay --enable-nonfree --enable-vda
  libavutil      54. 20.100 / 54. 20.100
  libavcodec     56. 26.100 / 56. 26.100
  libavformat    56. 25.101 / 56. 25.101
  libavdevice    56.  4.100 / 56.  4.100
  libavfilter     5. 11.102 /  5. 11.102
  libavresample   2.  1.  0 /  2.  1.  0
  libswscale      3.  1.101 /  3.  1.101
  libswresample   1.  1.100 /  1.  1.100
  libpostproc    53.  3.100 / 53.  3.100
Splitting the commandline.
Reading option '-y' ... matched as option 'y' (overwrite output files) with argument '1'.
Reading option '-f' ... matched as option 'f' (force format) with argument 'lavfi'.
Reading option '-i' ... matched as input file with argument 'mandelbrot'.
Reading option '-c:v' ... matched as option 'c' (codec name) with argument 'ffv1'.
Reading option '-pix_fmt' ... matched as option 'pix_fmt' (set pixel format) with argument 'yuv422p10le'.
Reading option '-level' ... matched as AVOption 'level' with argument '3'.
Reading option '-coder' ... matched as AVOption 'coder' with argument '1'.
Reading option '-g' ... matched as AVOption 'g' with argument '1'.
Reading option '-t' ... matched as option 't' (record or transcode "duration" seconds of audio/video) with argument '1'.
Reading option 'ffv1_test_pixfmt-yuv422p10le_coder-1_level-3_g-1.mkv' ... matched as output file.
Finished splitting the commandline.
Parsing a group of options: global .
Applying option y (overwrite output files) with argument 1.
Successfully parsed a group of options.
Parsing a group of options: input file mandelbrot.
Applying option f (force format) with argument lavfi.
Successfully parsed a group of options.
Opening an input file: mandelbrot.
detected 4 logical cores
[AVFilterGraph @ 0x7f9112c23840] query_formats: 2 queried, 1 merged, 0 already done, 0 delayed
[lavfi @ 0x7f911300da00] All info found
Input #0, lavfi, from 'mandelbrot':
  Duration: N/A, start: 0.000000, bitrate: N/A
    Stream #0:0, 1, 1/25: Video: rawvideo (RGBA / 0x41424752), rgba, 640x480 [SAR 1:1 DAR 4:3], 25 tbr, 25 tbn, 25 tbc
Successfully opened the file.
Parsing a group of options: output file ffv1_test_pixfmt-yuv422p10le_coder-1_level-3_g-1.mkv.
Applying option c:v (codec name) with argument ffv1.
Applying option pix_fmt (set pixel format) with argument yuv422p10le.
Applying option t (record or transcode "duration" seconds of audio/video) with argument 1.
Successfully parsed a group of options.
Opening an output file: ffv1_test_pixfmt-yuv422p10le_coder-1_level-3_g-1.mkv.
Successfully opened the file.
[graph 0 input from stream 0:0 @ 0x7f9112d01240] Setting 'video_size' to value '640x480'
[graph 0 input from stream 0:0 @ 0x7f9112d01240] Setting 'pix_fmt' to value '28'
[graph 0 input from stream 0:0 @ 0x7f9112d01240] Setting 'time_base' to value '1/25'
[graph 0 input from stream 0:0 @ 0x7f9112d01240] Setting 'pixel_aspect' to value '1/1'
[graph 0 input from stream 0:0 @ 0x7f9112d01240] Setting 'sws_param' to value 'flags=2'
[graph 0 input from stream 0:0 @ 0x7f9112d01240] Setting 'frame_rate' to value '25/1'
[graph 0 input from stream 0:0 @ 0x7f9112d01240] w:640 h:480 pixfmt:rgba tb:1/25 fr:25/1 sar:1/1 sws_param:flags=2
[format @ 0x7f9112d01740] compat: called with args=[yuv422p10le]
[format @ 0x7f9112d01740] Setting 'pix_fmts' to value 'yuv422p10le'
[auto-inserted scaler 0 @ 0x7f9112d022c0] Setting 'flags' to value '0x4'
[auto-inserted scaler 0 @ 0x7f9112d022c0] w:iw h:ih flags:'0x4' interl:0
[format @ 0x7f9112d01740] auto-inserting filter 'auto-inserted scaler 0' between the filter 'Parsed_null_0' and the filter 'format'
[AVFilterGraph @ 0x7f9112e00240] query_formats: 5 queried, 3 merged, 1 already done, 0 delayed
[auto-inserted scaler 0 @ 0x7f9112d022c0] w:640 h:480 fmt:rgba sar:1/1 -> w:640 h:480 fmt:yuv422p10le sar:1/1 flags:0x4
Output #0, matroska, to 'ffv1_test_pixfmt-yuv422p10le_coder-1_level-3_g-1.mkv':
  Metadata:
    encoder         : Lavf56.25.101
    Stream #0:0, 0, 1/1000: Video: ffv1 (FFV1 / 0x31564646), yuv422p10le, 640x480 [SAR 1:1 DAR 4:3], q=2-31, 200 kb/s, 25 fps, 1k tbn, 25 tbc
    Metadata:
      encoder         : Lavc56.26.100 ffv1
Stream mapping:
  Stream #0:0 -> #0:0 (rawvideo (native) -> ffv1 (native))
Press [q] to stop, [?] for help
Cliping frame in rate conversion by 0.000008
[matroska @ 0x7f9113800600] Writing block at offset 848, size 210171, pts 0, dts 0, duration 40, flags 128
[matroska @ 0x7f9113800600] Starting new cluster at offset 211027 bytes, pts 40dts 40
[matroska @ 0x7f9113800600] Writing block at offset 211042, size 211075, pts 40, dts 40, duration 40, flags 128
[matroska @ 0x7f9113800600] Starting new cluster at offset 422125 bytes, pts 80dts 80
[matroska @ 0x7f9113800600] Writing block at offset 422140, size 211783, pts 80, dts 80, duration 40, flags 128
[matroska @ 0x7f9113800600] Starting new cluster at offset 633931 bytes, pts 120dts 120
[matroska @ 0x7f9113800600] Writing block at offset 633946, size 213272, pts 120, dts 120, duration 40, flags 128
[matroska @ 0x7f9113800600] Starting new cluster at offset 847226 bytes, pts 160dts 160
[matroska @ 0x7f9113800600] Writing block at offset 847241, size 214690, pts 160, dts 160, duration 40, flags 128
[matroska @ 0x7f9113800600] Starting new cluster at offset 1061939 bytes, pts 200dts 200
[matroska @ 0x7f9113800600] Writing block at offset 1061954, size 216390, pts 200, dts 200, duration 40, flags 128
[matroska @ 0x7f9113800600] Starting new cluster at offset 1278352 bytes, pts 240dts 240
[matroska @ 0x7f9113800600] Writing block at offset 1278367, size 218470, pts 240, dts 240, duration 40, flags 128
[matroska @ 0x7f9113800600] Starting new cluster at offset 1496845 bytes, pts 280dts 280
[matroska @ 0x7f9113800600] Writing block at offset 1496861, size 220400, pts 280, dts 280, duration 40, flags 128
[matroska @ 0x7f9113800600] Starting new cluster at offset 1717269 bytes, pts 320dts 320
[matroska @ 0x7f9113800600] Writing block at offset 1717285, size 222909, pts 320, dts 320, duration 40, flags 128
[matroska @ 0x7f9113800600] Starting new cluster at offset 1940202 bytes, pts 360dts 360
[matroska @ 0x7f9113800600] Writing block at offset 1940218, size 225459, pts 360, dts 360, duration 40, flags 128
[matroska @ 0x7f9113800600] Starting new cluster at offset 2165685 bytes, pts 400dts 400
[matroska @ 0x7f9113800600] Writing block at offset 2165701, size 227758, pts 400, dts 400, duration 40, flags 128
[matroska @ 0x7f9113800600] Starting new cluster at offset 2393467 bytes, pts 440dts 440
[matroska @ 0x7f9113800600] Writing block at offset 2393483, size 230194, pts 440, dts 440, duration 40, flags 128
[matroska @ 0x7f9113800600] Starting new cluster at offset 2623685 bytes, pts 480dts 480
[matroska @ 0x7f9113800600] Writing block at offset 2623701, size 232108, pts 480, dts 480, duration 40, flags 128
[matroska @ 0x7f9113800600] Starting new cluster at offset 2855817 bytes, pts 520dts 520
[matroska @ 0x7f9113800600] Writing block at offset 2855833, size 235153, pts 520, dts 520, duration 40, flags 128
[matroska @ 0x7f9113800600] Starting new cluster at offset 3090994 bytes, pts 560dts 560
[matroska @ 0x7f9113800600] Writing block at offset 3091010, size 237697, pts 560, dts 560, duration 40, flags 128
[matroska @ 0x7f9113800600] Starting new cluster at offset 3328715 bytes, pts 600dts 600
[matroska @ 0x7f9113800600] Writing block at offset 3328731, size 239517, pts 600, dts 600, duration 40, flags 128
[matroska @ 0x7f9113800600] Starting new cluster at offset 3568256 bytes, pts 640dts 640
[matroska @ 0x7f9113800600] Writing block at offset 3568272, size 241125, pts 640, dts 640, duration 40, flags 128
frame=   17 fps=0.0 q=0.0 size=    3720kB time=00:00:00.68 bitrate=44816.5kbits/s    [matroska @ 0x7f9113800600] Starting new cluster at offset 3809405 bytes, pts 680dts 680
[matroska @ 0x7f9113800600] Writing block at offset 3809421, size 243318, pts 680, dts 680, duration 40, flags 128
[matroska @ 0x7f9113800600] Starting new cluster at offset 4052747 bytes, pts 720dts 720
[matroska @ 0x7f9113800600] Writing block at offset 4052763, size 244599, pts 720, dts 720, duration 40, flags 128
[matroska @ 0x7f9113800600] Starting new cluster at offset 4297370 bytes, pts 760dts 760
[matroska @ 0x7f9113800600] Writing block at offset 4297386, size 246423, pts 760, dts 760, duration 40, flags 128
[matroska @ 0x7f9113800600] Starting new cluster at offset 4543817 bytes, pts 800dts 800
[matroska @ 0x7f9113800600] Writing block at offset 4543833, size 247701, pts 800, dts 800, duration 40, flags 128
[matroska @ 0x7f9113800600] Starting new cluster at offset 4791542 bytes, pts 840dts 840
[matroska @ 0x7f9113800600] Writing block at offset 4791558, size 249560, pts 840, dts 840, duration 40, flags 128
[matroska @ 0x7f9113800600] Starting new cluster at offset 5041126 bytes, pts 880dts 880
[matroska @ 0x7f9113800600] Writing block at offset 5041142, size 250621, pts 880, dts 880, duration 40, flags 128
[matroska @ 0x7f9113800600] Starting new cluster at offset 5291771 bytes, pts 920dts 920
[matroska @ 0x7f9113800600] Writing block at offset 5291787, size 251793, pts 920, dts 920, duration 40, flags 128
[matroska @ 0x7f9113800600] Starting new cluster at offset 5543588 bytes, pts 960dts 960
[matroska @ 0x7f9113800600] Writing block at offset 5543604, size 253990, pts 960, dts 960, duration 40, flags 128
[output stream 0:0 @ 0x7f9112d01540] EOF on sink link output stream 0:0:default.
No more output streams to write to, finishing.
[matroska @ 0x7f9113800600] end duration = 1000
frame=   25 fps=0.0 q=0.0 Lsize=    5662kB time=00:00:01.00 bitrate=46384.6kbits/s    
video:5660kB audio:0kB subtitle:0kB other streams:0kB global headers:0kB muxing overhead: 0.032866%
Input file #0 (mandelbrot):
  Input stream #0:0 (video): 26 packets read (31948800 bytes); 26 frames decoded; 
  Total: 26 packets (31948800 bytes) demuxed
Output file #0 (ffv1_test_pixfmt-yuv422p10le_coder-1_level-3_g-1.mkv):
  Output stream #0:0 (video): 25 frames encoded; 25 packets muxed (5796176 bytes); 
  Total: 25 packets (5796176 bytes) muxed
26 frames successfully decoded, 0 decoding errors
[AVIOContext @ 0x7f9112e00000] Statistics: 168 seeks, 303 writeouts
